<svg width="1001" height="512" viewBox="0 0 1001 512" fill="none" xmlns="http://www.w3.org/2000/svg">
<path d="M240 102.4C136.747 102.4 52.267 186.88 52.267 290.133C52.267 340.897 72.697 387.114 105.729 420.994C106.057 421.486 106.439 421.957 106.881 422.399C107.365 422.883 107.851 423.29 108.354 423.637C142.303 457.121 188.844 477.866 240.001 477.866C343.254 477.866 427.734 393.386 427.734 290.133C427.734 186.88 343.253 102.4 240 102.4ZM385.067 298.667H410.452C408.429 339.238 392.066 376.195 366.359 404.546L348.374 386.561C344.961 383.148 339.841 383.148 336.427 386.561C333.014 389.974 333.014 395.094 336.427 398.508L354.412 416.493C326.062 442.2 289.104 458.563 248.533 460.586V435.2C248.533 430.08 245.12 426.667 240 426.667C234.88 426.667 231.467 430.08 231.467 435.2V460.585C190.683 458.551 153.551 442.026 125.142 416.085L142.72 398.507C146.133 395.094 146.133 389.974 142.72 386.56C139.307 383.147 134.187 383.147 130.773 386.56L113.24 404.094C87.766 375.803 71.561 339.024 69.548 298.667H94.933C99.2 298.667 103.466 295.254 103.466 290.134C103.466 285.014 100.053 281.601 94.933 281.601H69.548C71.571 241.03 87.934 204.073 113.641 175.722L131.626 193.707C133.333 195.414 135.039 196.267 137.599 196.267C139.306 196.267 141.866 195.414 143.572 193.707C146.985 190.294 146.985 185.174 143.572 181.76L125.587 163.775C153.937 138.068 190.895 121.705 231.466 119.682V145.067C231.466 150.187 234.879 153.6 239.999 153.6C244.266 153.6 248.532 150.187 248.532 145.067V119.682C289.103 121.705 326.06 138.068 354.411 163.775L336.426 181.76C333.013 185.173 333.013 190.293 336.426 193.707C338.133 195.414 339.839 196.267 342.399 196.267C344.959 196.267 346.666 195.414 348.372 193.707L366.357 175.722C392.064 204.072 408.427 241.03 410.45 281.601H385.065C379.945 281.601 376.532 285.014 376.532 290.134C376.532 295.254 379.947 298.667 385.067 298.667Z" fill="black"/>
<path d="M453.333 154.453C460.16 154.453 466.986 151.893 472.106 146.773C482.346 136.533 482.346 119.466 472.106 109.226L437.973 75.093C427.733 64.853 410.666 64.853 400.426 75.093C392.11 83.409 390.548 96.226 395.738 106.234L381.979 119.993C351.732 94.687 314.711 77.247 274.132 70.912V51.2H290.345C300.585 51.2 308.265 43.52 308.265 34.133V17.92C308.265 7.68 300.585 0 290.345 0H188.8C179.413 0 171.733 7.68 171.733 17.92V33.28C171.733 43.52 179.413 51.2 188.8 51.2H205.867V70.912C165.496 77.214 128.644 94.505 98.483 119.602L84.542 105.661C89.384 95.741 87.733 83.252 79.574 75.093C69.334 64.853 52.267 64.853 42.027 75.093L7.89399 109.226C-2.34601 119.466 -2.34601 136.533 7.89399 146.773C13.014 151.893 19.841 154.453 26.667 154.453C32.727 154.453 38.784 152.431 43.65 148.396L58.373 163.119C33.046 199.162 18.133 242.988 18.133 290.132C18.133 412.16 117.973 512 240 512C362.027 512 461.867 412.16 461.867 290.133C461.867 243.207 447.09 199.571 421.977 163.623L436.823 148.777C441.605 152.558 447.468 154.453 453.333 154.453ZM412.373 87.04C414.08 85.333 416.64 84.48 419.2 84.48C421.76 84.48 424.32 85.333 426.027 87.04L460.16 121.173C463.573 125.44 464.427 131.413 460.16 134.826C455.893 138.239 449.92 138.239 446.507 134.826L444.964 133.283C444.538 132.308 443.917 131.383 443.093 130.559L413.226 100.692C412.667 100.133 412.058 99.674 411.422 99.298C409.006 95.202 409.317 90.096 412.373 87.04ZM406.4 118.613L424.32 136.533L411.52 149.333C406.4 142.506 400.427 136.533 394.453 130.56L406.4 118.613ZM188.8 17.067L291.2 17.92V33.28C291.2 34.133 291.2 34.133 290.347 34.133L188.8 33.28V17.067ZM222.933 51.2H257.066V68.922C251.432 68.488 245.74 68.266 239.999 68.266C234.258 68.266 228.567 68.488 222.932 68.922L222.933 51.2ZM73.6 118.613L85.547 130.56C79.574 136.533 73.6 142.507 68.48 149.333L55.68 136.533L73.6 118.613ZM19.84 134.827C16.427 130.56 16.427 124.587 19.84 121.174L53.973 87.04C55.68 85.333 58.24 84.48 60.8 84.48C63.36 84.48 65.92 85.333 67.627 87.04C71.04 91.307 71.04 97.28 67.627 100.693L33.493 134.827C30.08 138.24 23.253 138.24 19.84 134.827ZM240 494.933C127.36 494.933 35.2 402.773 35.2 290.133C35.2 244.464 50.352 202.164 75.873 168.005C76.253 167.757 76.633 167.506 77.013 167.253C84.693 156.16 94.08 146.773 104.32 137.386C104.668 137.038 104.971 136.649 105.248 136.244C135.179 109.984 172.756 92.255 214.086 86.977C214.473 87.014 214.863 87.039 215.253 87.039C232.32 85.332 247.68 85.332 264.746 87.039H265.599C265.77 87.039 265.955 87.024 266.141 87.007C366.556 99.947 444.8 186.346 444.8 290.133C444.8 402.773 352.64 494.933 240 494.933Z" fill="black"/>
<path d="M248.533 257.088V179.2C248.533 174.08 245.12 170.667 240 170.667C234.88 170.667 231.467 174.08 231.467 179.2V257.088C216.788 260.902 205.867 274.304 205.867 290.134C205.867 308.907 221.227 324.267 240 324.267C258.773 324.267 274.133 308.907 274.133 290.134C274.133 274.304 263.212 260.902 248.533 257.088ZM240 307.2C230.613 307.2 222.933 299.52 222.933 290.133C222.933 280.746 230.613 273.066 240 273.066C249.387 273.066 257.067 280.746 257.067 290.133C257.067 299.52 249.387 307.2 240 307.2Z" fill="black"/>
<path d="M529.642 208V62.5454H560.395V126.679H562.312L614.656 62.5454H651.517L597.54 127.673L652.156 208H615.366L575.523 148.199L560.395 166.665V208H529.642Z" fill="black"/>
<path d="M692.604 208H659.649L709.862 62.5454H749.493L799.635 208H766.68L730.246 95.7841H729.109L692.604 208ZM690.544 150.827H768.385V174.832H690.544V150.827Z" fill="black"/>
<path d="M875.381 62.5454H905.778V163.966C905.778 173.341 903.671 181.485 899.457 188.398C895.291 195.311 889.491 200.637 882.057 204.378C874.623 208.118 865.982 209.989 856.134 209.989C847.374 209.989 839.42 208.45 832.27 205.372C825.168 202.247 819.533 197.512 815.366 191.168C811.2 184.776 809.14 176.75 809.188 167.091H839.798C839.893 170.926 840.674 174.217 842.142 176.963C843.657 179.662 845.717 181.745 848.321 183.213C850.973 184.634 854.098 185.344 857.696 185.344C861.484 185.344 864.68 184.539 867.284 182.929C869.936 181.272 871.948 178.857 873.321 175.685C874.694 172.512 875.381 168.606 875.381 163.966V62.5454Z" fill="black"/>
<path d="M524.102 329.901V304.545H643.562V329.901H599.031V450H568.634V329.901H524.102Z" fill="black"/>
<path d="M693.989 304.545V450H663.236V304.545H693.989Z" fill="black"/>
<path d="M719.29 304.545H757.217L797.273 402.273H798.978L839.035 304.545H876.961V450H847.131V355.327H845.924L808.282 449.29H787.969L750.327 354.972H749.12V450H719.29V304.545Z" fill="black"/>
<path d="M902.298 450V304.545H1000.31V329.901H933.051V364.56H995.267V389.915H933.051V424.645H1000.59V450H902.298Z" fill="black"/>
</svg>
